<svg width="20" height="20" viewBox="0 0 20 20" fill="none" xmlns="http://www.w3.org/2000/svg">
<path d="M9.99935 18.3327C14.6017 18.3327 18.3327 14.6017 18.3327 9.99935C18.3327 5.39698 14.6017 1.66602 9.99935 1.66602C5.39698 1.66602 1.66602 5.39698 1.66602 9.99935C1.66602 14.6017 5.39698 18.3327 9.99935 18.3327Z" fill="#FF4F12"/>
<path d="M10.8822 10.0008L12.7988 8.08411C13.0405 7.84245 13.0405 7.44245 12.7988 7.20078C12.5572 6.95911 12.1572 6.95911 11.9155 7.20078L9.99883 9.11745L8.08216 7.20078C7.84049 6.95911 7.44049 6.95911 7.19883 7.20078C6.95716 7.44245 6.95716 7.84245 7.19883 8.08411L9.11549 10.0008L7.19883 11.9174C6.95716 12.1591 6.95716 12.5591 7.19883 12.8008C7.32383 12.9258 7.48216 12.9841 7.64049 12.9841C7.79883 12.9841 7.95716 12.9258 8.08216 12.8008L9.99883 10.8841L11.9155 12.8008C12.0405 12.9258 12.1988 12.9841 12.3572 12.9841C12.5155 12.9841 12.6738 12.9258 12.7988 12.8008C13.0405 12.5591 13.0405 12.1591 12.7988 11.9174L10.8822 10.0008Z" fill="white"/>
</svg>
