<svg width="16" height="16" viewBox="0 0 16 16" fill="none" xmlns="http://www.w3.org/2000/svg">
<path opacity="0.4" d="M7.99967 14.6666C11.6816 14.6666 14.6663 11.6818 14.6663 7.99992C14.6663 4.31802 11.6816 1.33325 7.99967 1.33325C4.31778 1.33325 1.33301 4.31802 1.33301 7.99992C1.33301 11.6818 4.31778 14.6666 7.99967 14.6666Z" fill="#585D69"/>
<path d="M8.70592 7.99999L10.2393 6.46666C10.4326 6.27332 10.4326 5.95332 10.2393 5.75999C10.0459 5.56666 9.72592 5.56666 9.53259 5.75999L7.99926 7.29332L6.46592 5.75999C6.27259 5.56666 5.95259 5.56666 5.75926 5.75999C5.56592 5.95332 5.56592 6.27332 5.75926 6.46666L7.29259 7.99999L5.75926 9.53332C5.56592 9.72666 5.56592 10.0467 5.75926 10.24C5.85926 10.34 5.98592 10.3867 6.11259 10.3867C6.23926 10.3867 6.36592 10.34 6.46592 10.24L7.99926 8.70666L9.53259 10.24C9.63259 10.34 9.75926 10.3867 9.88592 10.3867C10.0126 10.3867 10.1393 10.34 10.2393 10.24C10.4326 10.0467 10.4326 9.72666 10.2393 9.53332L8.70592 7.99999Z" fill="#585D69"/>
</svg>
