<svg width="36" height="36" viewBox="0 0 36 36" fill="none" xmlns="http://www.w3.org/2000/svg">
<path d="M30 4H6C4.34315 4 3 5.34315 3 7V13C3 14.6569 4.34315 16 6 16H30C31.6568 16 33 14.6569 33 13V7C33 5.34315 31.6568 4 30 4Z" stroke="#7700FF" stroke-width="1.7" stroke-linecap="round" stroke-linejoin="round"/>
<path d="M9 10H9.018" stroke="#FF4F12" stroke-width="2" stroke-linecap="round" stroke-linejoin="round"/>
<path d="M30 20H6C4.34315 20 3 21.3431 3 23V29C3 30.6569 4.34315 32 6 32H30C31.6568 32 33 30.6569 33 29V23C33 21.3431 31.6568 20 30 20Z" stroke="#7700FF" stroke-width="1.7" stroke-linecap="round" stroke-linejoin="round"/>
<path d="M9 26H9.018" stroke="#FF4F12" stroke-width="2" stroke-linecap="round" stroke-linejoin="round"/>
</svg>
