<svg width="20" height="20" viewBox="0 0 20 20" fill="none" xmlns="http://www.w3.org/2000/svg">
<path d="M13.9993 10.8337C14.4596 10.8337 14.8327 10.4606 14.8327 10.0003C14.8327 9.54009 14.4596 9.16699 13.9993 9.16699C13.5391 9.16699 13.166 9.54009 13.166 10.0003C13.166 10.4606 13.5391 10.8337 13.9993 10.8337Z" fill="#BABACE" stroke="#BABACE" stroke-width="2" stroke-linecap="round" stroke-linejoin="round"/>
<path d="M13.9993 4.99967C14.4596 4.99967 14.8327 4.62658 14.8327 4.16634C14.8327 3.7061 14.4596 3.33301 13.9993 3.33301C13.5391 3.33301 13.166 3.7061 13.166 4.16634C13.166 4.62658 13.5391 4.99967 13.9993 4.99967Z" fill="#BABACE" stroke="#BABACE" stroke-width="2" stroke-linecap="round" stroke-linejoin="round"/>
<path d="M13.9993 16.6667C14.4596 16.6667 14.8327 16.2936 14.8327 15.8333C14.8327 15.3731 14.4596 15 13.9993 15C13.5391 15 13.166 15.3731 13.166 15.8333C13.166 16.2936 13.5391 16.6667 13.9993 16.6667Z" fill="#BABACE" stroke="#BABACE" stroke-width="2" stroke-linecap="round" stroke-linejoin="round"/>
<path d="M7.16732 10.8337C7.62755 10.8337 8.00065 10.4606 8.00065 10.0003C8.00065 9.54009 7.62755 9.16699 7.16732 9.16699C6.70708 9.16699 6.33398 9.54009 6.33398 10.0003C6.33398 10.4606 6.70708 10.8337 7.16732 10.8337Z" fill="#BABACE" stroke="#BABACE" stroke-width="2" stroke-linecap="round" stroke-linejoin="round"/>
<path d="M7.16732 4.99967C7.62755 4.99967 8.00065 4.62658 8.00065 4.16634C8.00065 3.7061 7.62755 3.33301 7.16732 3.33301C6.70708 3.33301 6.33398 3.7061 6.33398 4.16634C6.33398 4.62658 6.70708 4.99967 7.16732 4.99967Z" fill="#BABACE" stroke="#BABACE" stroke-width="2" stroke-linecap="round" stroke-linejoin="round"/>
<path d="M7.16732 16.6667C7.62755 16.6667 8.00065 16.2936 8.00065 15.8333C8.00065 15.3731 7.62755 15 7.16732 15C6.70708 15 6.33398 15.3731 6.33398 15.8333C6.33398 16.2936 6.70708 16.6667 7.16732 16.6667Z" fill="#BABACE" stroke="#BABACE" stroke-width="2" stroke-linecap="round" stroke-linejoin="round"/>
</svg>
