<svg width="16" height="16" viewBox="0 0 16 16" fill="none" xmlns="http://www.w3.org/2000/svg">
<path opacity="0.4" d="M14.1661 6.10003C13.8394 5.58003 13.4661 5.11336 13.0794 4.69336L10.5661 7.20669C10.6461 7.45336 10.6927 7.72003 10.6927 8.00003C10.6927 9.49336 9.48608 10.6934 7.99941 10.6934C7.71941 10.6934 7.45275 10.6467 7.20608 10.5667L4.89941 12.8734C5.87275 13.42 6.92608 13.7067 7.99941 13.7067C9.18608 13.7067 10.3394 13.36 11.3927 12.7134C12.4461 12.06 13.3927 11.1067 14.1661 9.89336C14.8327 8.85336 14.8327 7.14669 14.1661 6.10003Z" fill="#585D69"/>
<path d="M9.34708 6.65326L6.65375 9.3466C6.31375 8.99993 6.09375 8.51993 6.09375 7.99993C6.09375 6.95326 6.94708 6.09326 8.00042 6.09326C8.52042 6.09326 9.00042 6.31326 9.34708 6.65326Z" fill="#585D69"/>
<path opacity="0.4" d="M12.1663 3.83329L9.90634 6.09329C9.41967 5.59995 8.74634 5.30662 7.99967 5.30662C6.50634 5.30662 5.30634 6.51329 5.30634 7.99995C5.30634 8.74662 5.60634 9.41995 6.09301 9.90662L3.83967 12.1666H3.83301C3.09301 11.5666 2.41301 10.8 1.83301 9.89329C1.16634 8.84662 1.16634 7.14662 1.83301 6.09995C2.60634 4.88662 3.55301 3.93329 4.60634 3.27995C5.65967 2.63995 6.81301 2.28662 7.99967 2.28662C9.48634 2.28662 10.9263 2.83329 12.1663 3.83329Z" fill="#585D69"/>
<path d="M9.90672 8.00005C9.90672 9.04672 9.05339 9.90672 8.00005 9.90672C7.96005 9.90672 7.92672 9.90672 7.88672 9.89339L9.89339 7.88672C9.90672 7.92672 9.90672 7.96005 9.90672 8.00005Z" fill="#585D69"/>
<path d="M14.5136 1.48643C14.3136 1.28643 13.9869 1.28643 13.7869 1.48643L1.48691 13.7931C1.28691 13.9931 1.28691 14.3198 1.48691 14.5198C1.58691 14.6131 1.71358 14.6664 1.84691 14.6664C1.98025 14.6664 2.10691 14.6131 2.20691 14.5131L14.5136 2.20643C14.7202 2.00643 14.7202 1.68643 14.5136 1.48643Z" fill="#585D69"/>
</svg>
