<svg width="16" height="16" viewBox="0 0 16 16" fill="none" xmlns="http://www.w3.org/2000/svg">
<path opacity="0.4" d="M14.1663 6.09995C12.6263 3.67995 10.373 2.28662 7.99967 2.28662C6.81301 2.28662 5.65967 2.63329 4.60634 3.27995C3.55301 3.93329 2.60634 4.88662 1.83301 6.09995C1.16634 7.14662 1.16634 8.84662 1.83301 9.89329C3.37301 12.32 5.62634 13.7066 7.99967 13.7066C9.18634 13.7066 10.3397 13.36 11.393 12.7133C12.4463 12.06 13.393 11.1066 14.1663 9.89329C14.833 8.85329 14.833 7.14662 14.1663 6.09995ZM7.99967 10.6933C6.50634 10.6933 5.30634 9.48662 5.30634 7.99995C5.30634 6.51329 6.50634 5.30662 7.99967 5.30662C9.49301 5.30662 10.693 6.51329 10.693 7.99995C10.693 9.48662 9.49301 10.6933 7.99967 10.6933Z" fill="#585D69"/>
<path d="M8.00059 6.09351C6.95392 6.09351 6.10059 6.94684 6.10059 8.00017C6.10059 9.04684 6.95392 9.90017 8.00059 9.90017C9.04725 9.90017 9.90725 9.04684 9.90725 8.00017C9.90725 6.95351 9.04725 6.09351 8.00059 6.09351Z" fill="#585D69"/>
</svg>
