<svg width="36" height="36" viewBox="0 0 36 36" fill="none" xmlns="http://www.w3.org/2000/svg">
<path d="M7.3934 11.8934L7.92373 11.3631L7.3934 11.8934ZM28.6066 11.8934L29.1369 12.4237L28.6066 11.8934ZM4.5 9L3.96967 9.53033L4.5 9ZM31.5 9L30.9697 8.46967V8.46967L31.5 9ZM16.5 30.75C16.0858 30.75 15.75 31.0858 15.75 31.5C15.75 31.9142 16.0858 32.25 16.5 32.25V30.75ZM31.5676 28.4084L30.9609 27.9676L31.5676 28.4084ZM29.9084 30.0676L29.4676 29.4609V29.4609L29.9084 30.0676ZM29.9084 5.93237L30.3492 5.32561V5.32561L29.9084 5.93237ZM31.5676 7.59161L30.9609 8.03245V8.03245L31.5676 7.59161ZM6.09161 5.93237L5.65077 5.32561V5.32561L6.09161 5.93237ZM2.25 18C2.25 18.4142 2.58579 18.75 3 18.75C3.41421 18.75 3.75 18.4142 3.75 18H2.25ZM4.43237 7.59161L3.82561 7.15077L4.43237 7.59161ZM1.5 27.75C1.08579 27.75 0.75 28.0858 0.75 28.5C0.75 28.9142 1.08579 29.25 1.5 29.25V27.75ZM10.5 29.25C10.9142 29.25 11.25 28.9142 11.25 28.5C11.25 28.0858 10.9142 27.75 10.5 27.75V29.25ZM1.5 23.25C1.08579 23.25 0.75 23.5858 0.75 24C0.75 24.4142 1.08579 24.75 1.5 24.75V23.25ZM6 24.75C6.41421 24.75 6.75 24.4142 6.75 24C6.75 23.5858 6.41421 23.25 6 23.25V24.75ZM7.92373 11.3631L5.21231 8.65165L4.15165 9.71231L6.86307 12.4237L7.92373 11.3631ZM30.7877 8.65165L28.0763 11.3631L29.1369 12.4237L31.8483 9.71231L30.7877 8.65165ZM6.86307 12.4237C9.34807 14.9087 11.2641 16.827 12.9518 18.1147C14.6568 19.4156 16.2168 20.1434 18 20.1434V18.6434C16.6766 18.6434 15.4333 18.1212 13.8617 16.9221C12.2727 15.7098 10.4387 13.8781 7.92373 11.3631L6.86307 12.4237ZM28.0763 11.3631C25.5613 13.8781 23.7273 15.7098 22.1383 16.9221C20.5667 18.1212 19.3234 18.6434 18 18.6434V20.1434C19.7832 20.1434 21.3432 19.4156 23.0482 18.1147C24.7359 16.827 26.6519 14.9087 29.1369 12.4237L28.0763 11.3631ZM7.92373 11.3631L5.03033 8.46967L3.96967 9.53033L6.86307 12.4237L7.92373 11.3631ZM30.9697 8.46967L28.0763 11.3631L29.1369 12.4237L32.0303 9.53033L30.9697 8.46967ZM16.5 5.25H19.5V3.75H16.5V5.25ZM19.5 30.75H16.5V32.25H19.5V30.75ZM32.25 18C32.25 20.829 32.249 22.8905 32.0753 24.4933C31.9032 26.0821 31.5687 27.131 30.9609 27.9676L32.1744 28.8492C32.9989 27.7143 33.3806 26.3713 33.5666 24.6549C33.751 22.9525 33.75 20.7956 33.75 18H32.25ZM19.5 32.25C22.2956 32.25 24.4525 32.251 26.1549 32.0666C27.8713 31.8806 29.2143 31.4989 30.3492 30.6744L29.4676 29.4609C28.631 30.0687 27.5821 30.4032 25.9933 30.5753C24.3905 30.749 22.329 30.75 19.5 30.75V32.25ZM30.9609 27.9676C30.5445 28.5406 30.0406 29.0445 29.4676 29.4609L30.3492 30.6744C31.0496 30.1655 31.6655 29.5496 32.1744 28.8492L30.9609 27.9676ZM19.5 5.25C22.329 5.25 24.3905 5.25103 25.9933 5.42468C27.5821 5.59682 28.631 5.93132 29.4676 6.53913L30.3492 5.32561C29.2143 4.50105 27.8713 4.11937 26.1549 3.93341C24.4525 3.74897 22.2956 3.75 19.5 3.75V5.25ZM29.4676 6.53913C30.0406 6.95547 30.5445 7.45941 30.9609 8.03245L32.1744 7.15077C31.6655 6.45039 31.0496 5.83447 30.3492 5.32561L29.4676 6.53913ZM16.5 3.75C13.7044 3.75 11.5475 3.74897 9.84511 3.93341C8.12871 4.11937 6.78568 4.50105 5.65077 5.32561L6.53245 6.53913C7.36904 5.93132 8.4179 5.59682 10.0067 5.42468C11.6095 5.25103 13.671 5.25 16.5 5.25V3.75ZM5.65077 5.32561C4.95039 5.83447 4.33447 6.45039 3.82561 7.15077L5.03913 8.03245C5.45547 7.45941 5.95941 6.95547 6.53245 6.53913L5.65077 5.32561ZM1.5 29.25H10.5V27.75H1.5V29.25ZM1.5 24.75H6V23.25H1.5V24.75ZM3.75 18C3.75 15.5526 3.75049 13.6765 3.86431 12.1698C3.978 10.6649 4.20113 9.59982 4.6072 8.75711L3.25589 8.10598C2.73041 9.19651 2.48777 10.4791 2.36857 12.0568C2.24951 13.6328 2.25 15.5742 2.25 18H3.75ZM4.6072 8.75711C4.73188 8.49836 4.87479 8.25865 5.03913 8.03245L3.82561 7.15077C3.60721 7.45138 3.41852 7.76848 3.25589 8.10598L4.6072 8.75711ZM5.03033 8.46967L4.46187 7.90121L3.40121 8.96187L3.96967 9.53033L5.03033 8.46967ZM33.75 18C33.75 15.5742 33.7505 13.6328 33.6314 12.0568C33.5122 10.4791 33.2696 9.19651 32.7441 8.10598L31.3928 8.75711C31.7989 9.59981 32.022 10.6649 32.1357 12.1698C32.2495 13.6765 32.25 15.5526 32.25 18H33.75ZM32.7441 8.10598C32.5815 7.76848 32.3928 7.45138 32.1744 7.15077L30.9609 8.03245C31.1252 8.25865 31.2681 8.49836 31.3928 8.75711L32.7441 8.10598ZM32.0303 9.53033L32.5988 8.96187L31.5381 7.90121L30.9697 8.46967L32.0303 9.53033Z" fill="#7700FF"/>
<path d="M1.5 27.75C1.08579 27.75 0.75 28.0858 0.75 28.5C0.75 28.9142 1.08579 29.25 1.5 29.25V27.75ZM10.5 29.25C10.9142 29.25 11.25 28.9142 11.25 28.5C11.25 28.0858 10.9142 27.75 10.5 27.75V29.25ZM1.5 23.25C1.08579 23.25 0.75 23.5858 0.75 24C0.75 24.4142 1.08579 24.75 1.5 24.75V23.25ZM6 24.75C6.41421 24.75 6.75 24.4142 6.75 24C6.75 23.5858 6.41421 23.25 6 23.25V24.75ZM1.5 29.25H10.5V27.75H1.5V29.25ZM1.5 24.75H6V23.25H1.5V24.75Z" fill="#FF4F12"/>
</svg>
