<svg width="56" height="56" viewBox="0 0 56 56" fill="none" xmlns="http://www.w3.org/2000/svg">
<path opacity="0.3" d="M28 56C43.464 56 56 43.464 56 28C56 12.536 43.464 0 28 0C12.536 0 0 12.536 0 28C0 43.464 12.536 56 28 56Z" fill="#FF4F12"/>
<path d="M28 38C33.5228 38 38 33.5228 38 28C38 22.4772 33.5228 18 28 18C22.4772 18 18 22.4772 18 28C18 33.5228 22.4772 38 28 38Z" fill="#FF4F12"/>
<path d="M29.0604 28.0004L31.3604 25.7004C31.6504 25.4104 31.6504 24.9304 31.3604 24.6404C31.0704 24.3504 30.5904 24.3504 30.3004 24.6404L28.0004 26.9404L25.7004 24.6404C25.4104 24.3504 24.9304 24.3504 24.6404 24.6404C24.3504 24.9304 24.3504 25.4104 24.6404 25.7004L26.9404 28.0004L24.6404 30.3004C24.3504 30.5904 24.3504 31.0704 24.6404 31.3604C24.7904 31.5104 24.9804 31.5804 25.1704 31.5804C25.3604 31.5804 25.5504 31.5104 25.7004 31.3604L28.0004 29.0604L30.3004 31.3604C30.4504 31.5104 30.6404 31.5804 30.8304 31.5804C31.0204 31.5804 31.2104 31.5104 31.3604 31.3604C31.6504 31.0704 31.6504 30.5904 31.3604 30.3004L29.0604 28.0004Z" fill="white"/>
</svg>
