<svg width="20" height="20" viewBox="0 0 20 20" fill="none" xmlns="http://www.w3.org/2000/svg">
<path opacity="0.4" d="M17.8337 9.99935C17.8337 14.3256 14.3266 17.8327 10.0003 17.8327C5.6741 17.8327 2.16699 14.3256 2.16699 9.99935C2.16699 5.67312 5.6741 2.16602 10.0003 2.16602C14.3266 2.16602 17.8337 5.67312 17.8337 9.99935Z" fill="#00D359" stroke="#00D359"/>
<path d="M8.46266 11.8279L8.81621 12.1815L9.16976 11.8279L13.4531 7.54457C13.4746 7.52304 13.5054 7.50977 13.5412 7.50977C13.5771 7.50977 13.6078 7.52304 13.6293 7.54457C13.6509 7.5661 13.6641 7.59683 13.6641 7.63268C13.6641 7.66853 13.6509 7.69927 13.6293 7.7208L8.90432 12.4458C8.88036 12.4698 8.84876 12.4827 8.81621 12.4827C8.78366 12.4827 8.75207 12.4698 8.7281 12.4458L6.36976 10.0875C6.34824 10.0659 6.33496 10.0352 6.33496 9.99935C6.33496 9.9635 6.34824 9.93276 6.36976 9.91124C6.39129 9.88971 6.42203 9.87643 6.45788 9.87643C6.49373 9.87643 6.52446 9.88971 6.54599 9.91124L8.46266 11.8279Z" fill="#00D359" stroke="#00D359"/>
</svg>
